<?xml version="1.0" encoding="utf-8"?>
<!-- Generator: Adobe Illustrator 19.0.0, SVG Export Plug-In . SVG Version: 6.00 Build 0)  -->
<svg xmlns="http://www.w3.org/2000/svg" xmlns:xlink="http://www.w3.org/1999/xlink" version="1.1" id="Layer_1" x="0px" y="0px" viewBox="0 0 1400 980" style="enable-background:new 0 0 1400 980;" xml:space="preserve">
<style type="text/css">
	.st0{fill:#EFE4E4;}
	.st1{fill:#D0C3C4;}
	.st2{fill:#4FBBC9;}
	.st3{fill:#F39197;}
	.st4{fill:#FCD6CA;}
	.st5{fill:#DEEDF8;}
	.st6{clip-path:url(#SVGID_2_);}
	.st7{fill:#97CCEE;}
	.st8{fill:#C6E3F7;}
	.st9{clip-path:url(#SVGID_4_);}
	.st10{fill:#D4DCE3;}
	.st11{fill:#ECF0B6;}
	.st12{fill:#BAE4EE;}
	.st13{fill:#9B7FBA;}
	.st14{fill:#80D1E1;}
	.st15{fill:none;stroke:#80D1E1;stroke-miterlimit:10;}
	.st16{fill:none;stroke:#80D1E1;stroke-miterlimit:10;stroke-dasharray:2.9536,2.9536;}
	.st17{opacity:0.5;fill:#97CCEE;}
	.st18{fill:#41AEB6;}
	.st19{fill:#4E7DBF;}
	.st20{fill:#FFFFFF;}
	.st21{fill:#DA58A0;}
	.st22{fill:#E785B6;}
	.st23{fill:#8655A3;}
	.st24{opacity:0.4;fill:#8655A3;}
	.st25{fill:#B8E2DF;}
	.st26{opacity:0.9;fill:#B8E2DF;}
	.st27{fill:#FEE787;}
	.st28{opacity:0.2;fill:#DA58A0;}
	.st29{opacity:0.8;fill:#DA58A0;}
	.st30{fill:#6FCCD8;}
	.st31{fill:#529499;}
	.st32{fill:#79C2C4;}
	.st33{fill:#976F94;}
	.st34{fill:#6297D0;}
	.st35{fill:#F3AB9A;}
	.st36{fill:#ED8F7D;}
	.st37{fill:#DDE9F1;}
	.st38{opacity:0.6;fill:#FFFFFF;}
	.st39{fill:#E2AC7A;}
	.st40{fill:#E6B7AD;}
	.st41{fill:#D3D2D1;}
	.st42{fill:#D6B2B2;}
	.st43{fill:#E5DACA;}
</style>

<g>
	<rect x="430.1" y="404.9" class="st1" width="263.9" height="92.9"/>
	<rect x="1204.6" y="290.5" class="st2" width="153.4" height="291.9"/>
	<g>
		<path class="st3" d="M1358,312.4c0,4.4-3.6,8-8,8h-133.5c-4.4,0-8-3.6-8-8V310c0-4.4,3.6-8,8-8H1350c4.4,0,8,3.6,8,8V312.4z"/>
		<path class="st3" d="M1358,342.7c0,4.4-3.6,8-8,8h-133.5c-4.4,0-8-3.6-8-8v-2.4c0-4.4,3.6-8,8-8H1350c4.4,0,8,3.6,8,8V342.7z"/>
		<path class="st3" d="M1358,373c0,4.4-3.6,8-8,8h-133.5c-4.4,0-8-3.6-8-8v-2.4c0-4.4,3.6-8,8-8H1350c4.4,0,8,3.6,8,8V373z"/>
		<path class="st3" d="M1358,403.2c0,4.4-3.6,8-8,8h-133.5c-4.4,0-8-3.6-8-8v-2.4c0-4.4,3.6-8,8-8H1350c4.4,0,8,3.6,8,8V403.2z"/>
		<path class="st3" d="M1358,433.5c0,4.4-3.6,8-8,8h-133.5c-4.4,0-8-3.6-8-8v-2.4c0-4.4,3.6-8,8-8H1350c4.4,0,8,3.6,8,8V433.5z"/>
		<path class="st3" d="M1358,463.8c0,4.4-3.6,8-8,8h-133.5c-4.4,0-8-3.6-8-8v-2.4c0-4.4,3.6-8,8-8H1350c4.4,0,8,3.6,8,8V463.8z"/>
		<path class="st3" d="M1358,494.1c0,4.4-3.6,8-8,8h-133.5c-4.4,0-8-3.6-8-8v-2.4c0-4.4,3.6-8,8-8H1350c4.4,0,8,3.6,8,8V494.1z"/>
		<path class="st3" d="M1358,524.4c0,4.4-3.6,8-8,8h-133.5c-4.4,0-8-3.6-8-8V522c0-4.4,3.6-8,8-8H1350c4.4,0,8,3.6,8,8V524.4z"/>
		<path class="st3" d="M1358,554.7c0,4.4-3.6,8-8,8h-133.5c-4.4,0-8-3.6-8-8v-2.4c0-4.4,3.6-8,8-8H1350c4.4,0,8,3.6,8,8V554.7z"/>
	</g>
	<rect x="694" y="98.7" class="st1" width="511.7" height="559.2"/>
	<g>
		<rect x="1021.6" y="157.1" class="st1" width="81.6" height="172.2"/>
		<path class="st1" d="M1085,144.1c0,4-3.3,7.3-7.3,7.3h-30.5c-4,0-7.3-3.3-7.3-7.3l0,0c0-4,3.3-7.3,7.3-7.3h30.5    C1081.7,136.8,1085,140.1,1085,144.1L1085,144.1z"/>
		<path class="st1" d="M1085,343.7c0,4-3.3,7.3-7.3,7.3h-30.5c-4,0-7.3-3.3-7.3-7.3l0,0c0-4,3.3-7.3,7.3-7.3h30.5    C1081.7,336.4,1085,339.7,1085,343.7L1085,343.7z"/>
		<g>
			<path class="st1" d="M1112.7,219.7c-4,0-7.3-3.3-7.3-7.3v-30.5c0-4,3.3-7.3,7.3-7.3l0,0c4,0,7.3,3.3,7.3,7.3v30.5     C1120,216.4,1116.7,219.7,1112.7,219.7L1112.7,219.7z"/>
			<path class="st1" d="M1112.7,311.8c-4,0-7.3-3.3-7.3-7.3V274c0-4,3.3-7.3,7.3-7.3l0,0c4,0,7.3,3.3,7.3,7.3v30.5     C1120,308.5,1116.7,311.8,1112.7,311.8L1112.7,311.8z"/>
			<g>
				<path class="st1" d="M1012,219.7c-4,0-7.3-3.3-7.3-7.3v-30.5c0-4,3.3-7.3,7.3-7.3l0,0c4,0,7.3,3.3,7.3,7.3v30.5      C1019.3,216.4,1016,219.7,1012,219.7L1012,219.7z"/>
				<path class="st1" d="M1012,311.8c-4,0-7.3-3.3-7.3-7.3V274c0-4,3.3-7.3,7.3-7.3l0,0c4,0,7.3,3.3,7.3,7.3v30.5      C1019.3,308.5,1016,311.8,1012,311.8L1012,311.8z"/>
			</g>
		</g>
	</g>
	<polygon class="st4" points="698.1,656.4 633.5,657.9 634.3,691.9 558.4,691.9 558.4,484.4 698.1,484.4  "/>
	<g>
		<rect x="697.4" y="129.9" class="st5" width="236.2" height="164.8"/>
		<g>
			<defs>
				<rect id="SVGID_1_" x="697.4" y="129.9" width="236.2" height="164.8"/>
			</defs>
			<clipPath id="SVGID_2_">
				<use xlink:href="#SVGID_1_" style="overflow:visible;"/>
			</clipPath>
			<g class="st6">
				<g>
					<rect x="700.3" y="118.6" class="st7" width="230.6" height="0.8"/>
					<rect x="700.3" y="127.1" class="st7" width="230.6" height="0.8"/>
					<rect x="700.3" y="135.5" class="st7" width="230.6" height="0.8"/>
					<rect x="700.3" y="144" class="st7" width="230.6" height="0.8"/>
					<rect x="700.3" y="152.5" class="st7" width="230.6" height="0.8"/>
					<rect x="700.3" y="161" class="st7" width="230.6" height="0.8"/>
					<rect x="700.3" y="169.5" class="st7" width="230.6" height="0.8"/>
					<rect x="700.3" y="178" class="st7" width="230.6" height="0.8"/>
					<rect x="700.3" y="186.5" class="st7" width="230.6" height="0.8"/>
					<rect x="700.3" y="195" class="st7" width="230.6" height="0.8"/>
					<rect x="700.3" y="203.5" class="st7" width="230.6" height="0.8"/>
					<rect x="700.3" y="212" class="st7" width="230.6" height="0.8"/>
					<rect x="700.3" y="220.5" class="st7" width="230.6" height="0.8"/>
					<rect x="700.3" y="228.9" class="st7" width="230.6" height="0.8"/>
					<rect x="700.3" y="237.4" class="st7" width="230.6" height="0.8"/>
					<rect x="700.3" y="245.9" class="st7" width="230.6" height="0.8"/>
					<rect x="700.3" y="254.4" class="st7" width="230.6" height="0.8"/>
					<rect x="700.3" y="262.9" class="st7" width="230.6" height="0.8"/>
					<rect x="700.3" y="271.4" class="st7" width="230.6" height="0.8"/>
					<rect x="700.3" y="279.9" class="st7" width="230.6" height="0.8"/>
					<rect x="700.3" y="288.4" class="st7" width="230.6" height="0.8"/>
					<rect x="700.3" y="296.9" class="st7" width="230.6" height="0.8"/>
					<rect x="700.3" y="305.4" class="st7" width="230.6" height="0.8"/>
					<rect x="700.3" y="313.9" class="st7" width="230.6" height="0.8"/>
					<rect x="700.3" y="322.4" class="st7" width="230.6" height="0.8"/>
					<rect x="700.3" y="330.8" class="st7" width="230.6" height="0.8"/>
					<rect x="700.3" y="339.3" class="st7" width="230.6" height="0.8"/>
					<rect x="700.3" y="347.8" class="st7" width="230.6" height="0.8"/>
					<rect x="700.3" y="356.3" class="st7" width="230.6" height="0.8"/>
					<rect x="700.3" y="364.8" class="st7" width="230.6" height="0.8"/>
					<rect x="700.3" y="373.3" class="st7" width="230.6" height="0.8"/>
				</g>
				<g>
					<rect x="922.3" y="100.3" class="st7" width="0.8" height="285.4"/>
					<rect x="913.8" y="100.3" class="st7" width="0.8" height="285.4"/>
					<rect x="905.3" y="100.3" class="st7" width="0.8" height="285.4"/>
					<rect x="896.8" y="100.3" class="st7" width="0.8" height="285.4"/>
					<rect x="888.3" y="100.3" class="st7" width="0.8" height="285.4"/>
					<rect x="879.8" y="100.3" class="st7" width="0.8" height="285.4"/>
					<rect x="871.3" y="100.3" class="st7" width="0.8" height="285.4"/>
					<rect x="862.8" y="100.3" class="st7" width="0.8" height="285.4"/>
					<rect x="854.3" y="100.3" class="st7" width="0.8" height="285.4"/>
					<rect x="845.8" y="100.3" class="st7" width="0.8" height="285.4"/>
					<rect x="837.4" y="100.3" class="st7" width="0.8" height="285.4"/>
					<rect x="828.9" y="100.3" class="st7" width="0.8" height="285.4"/>
					<rect x="820.4" y="100.3" class="st7" width="0.8" height="285.4"/>
					<rect x="811.9" y="100.3" class="st7" width="0.8" height="285.4"/>
					<rect x="803.4" y="100.3" class="st7" width="0.8" height="285.4"/>
					<rect x="794.9" y="100.3" class="st7" width="0.8" height="285.4"/>
					<rect x="786.4" y="100.3" class="st7" width="0.8" height="285.4"/>
					<rect x="777.9" y="100.3" class="st7" width="0.8" height="285.4"/>
					<rect x="769.4" y="100.3" class="st7" width="0.8" height="285.4"/>
					<rect x="760.9" y="100.3" class="st7" width="0.8" height="285.4"/>
					<rect x="752.4" y="100.3" class="st7" width="0.8" height="285.4"/>
					<rect x="743.9" y="100.3" class="st7" width="0.8" height="285.4"/>
					<rect x="735.5" y="100.3" class="st7" width="0.8" height="285.4"/>
					<rect x="727" y="100.3" class="st7" width="0.8" height="285.4"/>
					<rect x="718.5" y="100.3" class="st7" width="0.8" height="285.4"/>
					<rect x="710" y="100.3" class="st7" width="0.8" height="285.4"/>
					<rect x="701.5" y="100.3" class="st7" width="0.8" height="285.4"/>
					<rect x="693" y="100.3" class="st7" width="0.8" height="285.4"/>
					<rect x="684.5" y="100.3" class="st7" width="0.8" height="285.4"/>
					<rect x="676" y="100.3" class="st7" width="0.8" height="285.4"/>
					<rect x="667.5" y="100.3" class="st7" width="0.8" height="285.4"/>
				</g>
			</g>
		</g>
	</g>
	<polygon class="st8" points="536.7,126.7 678.1,126.7 678.1,405.8 581.4,405.8 581.4,288.6 519.1,288.6 519.1,129.9  "/>
	<g>
		<defs>
			<polygon id="SVGID_3_" points="536.7,126.7 678.1,126.7 678.1,405.8 581.4,405.8 581.4,288.6 519.1,288.6 519.1,129.9    "/>
		</defs>
		<clipPath id="SVGID_4_">
			<use xlink:href="#SVGID_3_" style="overflow:visible;"/>
		</clipPath>
		<g class="st9">
			<g>
				<rect x="536.7" y="138.7" class="st7" width="146.8" height="0.8"/>
				<rect x="536.7" y="147.2" class="st7" width="146.8" height="0.8"/>
				<rect x="536.7" y="155.7" class="st7" width="146.8" height="0.8"/>
				<rect x="536.7" y="164.2" class="st7" width="146.8" height="0.8"/>
				<rect x="536.7" y="172.7" class="st7" width="146.8" height="0.8"/>
				<rect x="536.7" y="181.2" class="st7" width="146.8" height="0.8"/>
				<rect x="536.7" y="189.7" class="st7" width="146.8" height="0.8"/>
				<rect x="536.7" y="198.1" class="st7" width="146.8" height="0.8"/>
				<rect x="536.7" y="206.6" class="st7" width="146.8" height="0.8"/>
				<rect x="536.7" y="215.1" class="st7" width="146.8" height="0.8"/>
				<rect x="536.7" y="223.6" class="st7" width="146.8" height="0.8"/>
				<rect x="536.7" y="232.1" class="st7" width="146.8" height="0.8"/>
				<rect x="536.7" y="240.6" class="st7" width="146.8" height="0.8"/>
				<rect x="536.7" y="249.1" class="st7" width="146.8" height="0.8"/>
				<rect x="536.7" y="257.6" class="st7" width="146.8" height="0.8"/>
				<rect x="536.7" y="266.1" class="st7" width="146.8" height="0.8"/>
				<rect x="536.7" y="274.6" class="st7" width="146.8" height="0.8"/>
				<rect x="536.7" y="283.1" class="st7" width="146.8" height="0.8"/>
				<rect x="536.7" y="291.6" class="st7" width="146.8" height="0.8"/>
				<rect x="536.7" y="300" class="st7" width="146.8" height="0.8"/>
				<rect x="536.7" y="308.5" class="st7" width="146.8" height="0.8"/>
				<rect x="536.7" y="317" class="st7" width="146.8" height="0.8"/>
				<rect x="536.7" y="325.5" class="st7" width="146.8" height="0.8"/>
				<rect x="536.7" y="334" class="st7" width="146.8" height="0.8"/>
				<rect x="536.7" y="342.5" class="st7" width="146.8" height="0.8"/>
				<rect x="536.7" y="351" class="st7" width="146.8" height="0.8"/>
				<rect x="536.7" y="359.5" class="st7" width="146.8" height="0.8"/>
				<rect x="536.7" y="368" class="st7" width="146.8" height="0.8"/>
				<rect x="536.7" y="376.5" class="st7" width="146.8" height="0.8"/>
				<rect x="536.7" y="385" class="st7" width="146.8" height="0.8"/>
				<rect x="536.7" y="393.4" class="st7" width="146.8" height="0.8"/>
			</g>
			<g>
				<rect x="737" y="120.4" class="st7" width="0.8" height="285.4"/>
				<rect x="728.6" y="120.4" class="st7" width="0.8" height="285.4"/>
				<rect x="720.1" y="120.4" class="st7" width="0.8" height="285.4"/>
				<rect x="711.6" y="120.4" class="st7" width="0.8" height="285.4"/>
				<rect x="703.1" y="120.4" class="st7" width="0.8" height="285.4"/>
				<rect x="694.6" y="120.4" class="st7" width="0.8" height="285.4"/>
				<rect x="686.1" y="120.4" class="st7" width="0.8" height="285.4"/>
				<rect x="677.6" y="120.4" class="st7" width="0.8" height="285.4"/>
				<rect x="669.1" y="120.4" class="st7" width="0.8" height="285.4"/>
				<rect x="660.6" y="120.4" class="st7" width="0.8" height="285.4"/>
				<rect x="652.1" y="120.4" class="st7" width="0.8" height="285.4"/>
				<rect x="643.6" y="120.4" class="st7" width="0.8" height="285.4"/>
				<rect x="635.2" y="120.4" class="st7" width="0.8" height="285.4"/>
				<rect x="626.7" y="120.4" class="st7" width="0.8" height="285.4"/>
				<rect x="618.2" y="120.4" class="st7" width="0.8" height="285.4"/>
				<rect x="609.7" y="120.4" class="st7" width="0.8" height="285.4"/>
				<rect x="601.2" y="120.4" class="st7" width="0.8" height="285.4"/>
				<rect x="592.7" y="120.4" class="st7" width="0.8" height="285.4"/>
				<rect x="584.2" y="120.4" class="st7" width="0.8" height="285.4"/>
				<rect x="575.7" y="120.4" class="st7" width="0.8" height="285.4"/>
				<rect x="567.2" y="120.4" class="st7" width="0.8" height="285.4"/>
				<rect x="558.7" y="120.4" class="st7" width="0.8" height="285.4"/>
				<rect x="550.2" y="120.4" class="st7" width="0.8" height="285.4"/>
				<rect x="541.7" y="120.4" class="st7" width="0.8" height="285.4"/>
				<rect x="533.3" y="120.4" class="st7" width="0.8" height="285.4"/>
				<rect x="524.8" y="120.4" class="st7" width="0.8" height="285.4"/>
				<rect x="516.3" y="120.4" class="st7" width="0.8" height="285.4"/>
				<rect x="507.8" y="120.4" class="st7" width="0.8" height="285.4"/>
				<rect x="499.3" y="120.4" class="st7" width="0.8" height="285.4"/>
				<rect x="490.8" y="120.4" class="st7" width="0.8" height="285.4"/>
				<rect x="482.3" y="120.4" class="st7" width="0.8" height="285.4"/>
			</g>
		</g>
	</g>
	<polygon class="st10" points="438.8,488.9 564.3,488.9 564.3,775.2 459.1,775.2 459.1,875.5 87.9,875.5 87.9,656.9 441.3,656.9     "/>
	<polygon class="st11" points="452.1,414.9 94.6,414.9 94.6,656.4 386.4,656.4 386.4,485.8 452.1,485.8  "/>
	<rect x="385.3" y="480" class="st12" width="62.3" height="171.7"/>
	<polygon class="st4" points="519.1,283.7 519.1,107.9 82.7,107.9 82.7,405.8 507.2,405.8 507.2,407.3 564.3,407.3 564.3,283.7  "/>
	<rect x="1191.3" y="92" class="st13" width="23.7" height="396.9"/>
	<rect x="70.9" y="864.5" class="st13" width="398.7" height="22"/>
	<rect x="1191.3" y="272.7" class="st13" width="180.5" height="22"/>
	<rect x="1194.6" y="571.4" class="st13" width="177.2" height="22"/>
	<rect x="447.6" y="768.5" class="st13" width="22" height="118"/>
	<rect x="548" y="609.6" class="st13" width="22" height="180.9"/>
	<rect x="548" y="609.6" class="st13" width="22" height="180.9"/>
	<rect x="430.1" y="475.5" class="st13" width="22" height="191.8"/>
	<rect x="683" y="609.6" class="st13" width="22" height="57.8"/>
	<rect x="552.4" y="480" class="st13" width="22" height="73"/>
	<rect x="508.1" y="329.1" class="st13" width="22" height="89.1"/>
	<rect x="911.6" y="242.8" class="st13" width="22" height="51.9"/>
	<rect x="563.4" y="276.9" class="st13" width="22" height="141.3"/>
	<rect x="683" y="477.9" class="st13" width="22" height="64.1"/>
	<rect x="1349.8" y="272.7" class="st13" width="22" height="315.2"/>
	<rect x="614.6" y="529.6" class="st13" width="22" height="170.4"/>
	<rect x="374.3" y="473.4" class="st13" width="22" height="130"/>
	<rect x="1194.6" y="543.7" class="st13" width="22" height="123.6"/>
	<rect x="452.1" y="768.5" class="st13" width="118" height="22"/>
	<rect x="548" y="678.1" class="st13" width="88.6" height="22"/>
	<rect x="548" y="531.1" class="st13" width="156.9" height="22"/>
	<rect x="630" y="645.4" class="st13" width="88.6" height="22"/>
	<rect x="374.3" y="473.4" class="st13" width="77.7" height="22"/>
	<rect x="508.1" y="477.9" class="st13" width="112.3" height="22"/>
	<rect x="508.1" y="396.3" class="st13" width="112.3" height="22"/>
	<rect x="508.1" y="276.9" class="st13" width="62.8" height="22"/>
	<rect x="778" y="645.4" class="st13" width="438.6" height="22"/>
	<polygon class="st14" points="385.3,603.4 389.5,642 394.1,642 390.2,603.4  "/>
	<rect x="386.4" y="641.1" class="st14" width="9.8" height="4.3"/>
	<g>
		<g>
			<polygon class="st14" points="393,431.6 436.2,473.7 440.8,473.7 397.9,431.6    "/>
		</g>
		<g>
			<path class="st14" d="M402.1,435.5l-0.9-0.4c0.2-0.6,6.4-14,39.9-17.3l0.1,1C408.3,422,402.1,435.3,402.1,435.5z"/>
		</g>
		<g>
			<g>
				<rect x="440.3" y="472.2" class="st14" width="1" height="1.5"/>
			</g>
			<g>
				<path class="st14" d="M441.3,469h-1v-3.2h1V469z M441.3,462.7h-1v-3.2h1V462.7z M441.3,456.4h-1v-3.2h1V456.4z M441.3,450h-1      v-3.2h1V450z M441.3,443.7h-1v-3.2h1V443.7z M441.3,437.4h-1v-3.2h1V437.4z M441.3,431.1h-1v-3.2h1V431.1z"/>
			</g>
			<g>
				<rect x="440.3" y="423.3" class="st14" width="1" height="1.5"/>
			</g>
		</g>
	</g>
	<g>
		<g>
			<polygon class="st14" points="1157.3,502.8 1200.5,543.8 1205.1,543.8 1162.2,502.8    "/>
		</g>
		<g>
			<path class="st14" d="M1166.4,506.6l-0.9-0.4c0.2-0.6,6.4-14,39.9-17.3l0.1,1C1172.7,493.2,1166.5,506.5,1166.4,506.6z"/>
		</g>
		<g>
			<g>
				<rect x="1204.6" y="543.3" class="st14" width="1" height="1.5"/>
			</g>
			<g>
				<path class="st14" d="M1205.6,540.2h-1V537h1V540.2z M1205.6,533.9h-1v-3.2h1V533.9z M1205.6,527.5h-1v-3.2h1V527.5z       M1205.6,521.2h-1v-3.2h1V521.2z M1205.6,514.9h-1v-3.2h1V514.9z M1205.6,508.6h-1v-3.2h1V508.6z M1205.6,502.3h-1v-3.2h1V502.3      z"/>
			</g>
			<g>
				<rect x="1204.6" y="494.4" class="st14" width="1" height="1.5"/>
			</g>
		</g>
	</g>
	<g>
		<g>
			<polygon class="st14" points="494.1,358.8 452.1,402 452.1,406.6 494.1,363.7    "/>
		</g>
		<g>
			<path class="st14" d="M490.2,367.9l0.4-0.9c0.6,0.2,14,6.4,17.3,39.9l-1,0.1C503.7,374.2,490.4,367.9,490.2,367.9z"/>
		</g>
		<g>
			<g>
				<rect x="452.1" y="406.1" class="st14" width="1.5" height="1"/>
			</g>
			<g>
				<path class="st14" d="M456.7,407.1v-1h3.2v1H456.7z M463,407.1v-1h3.2v1H463z M469.4,407.1v-1h3.2v1H469.4z M475.7,407.1v-1h3.2      v1H475.7z M482,407.1v-1h3.2v1H482z M488.3,407.1v-1h3.2v1H488.3z M494.6,407.1v-1h3.2v1H494.6z"/>
			</g>
			<g>
				<rect x="500.9" y="406.1" class="st14" width="1.5" height="1"/>
			</g>
		</g>
	</g>
	<g>
		<g>
			<polygon class="st14" points="465.9,534.1 508,490.9 508,486.3 465.9,529.2    "/>
		</g>
		<g>
			<path class="st14" d="M469.8,525l-0.4,0.9c-0.6-0.2-14-6.4-17.3-39.9l1-0.1C456.3,518.8,469.6,525,469.8,525z"/>
		</g>
		<g>
			<g>
				<rect x="506.5" y="485.8" class="st14" width="1.5" height="1"/>
			</g>
			<g>
				<path class="st14" d="M503.3,485.8v1h-3.2v-1H503.3z M497,485.8v1h-3.2v-1H497z M490.7,485.8v1h-3.2v-1H490.7z M484.3,485.8v1      h-3.2v-1H484.3z M478,485.8v1h-3.2v-1H478z M471.7,485.8v1h-3.2v-1H471.7z M465.4,485.8v1h-3.2v-1H465.4z"/>
			</g>
			<g>
				<rect x="457.6" y="485.8" class="st14" width="1.5" height="1"/>
			</g>
		</g>
	</g>
	<g>
		<g>
			<polygon class="st14" points="733.7,607.5 777.6,652.6 777.6,657.4 733.7,612.6    "/>
		</g>
		<g>
			<path class="st14" d="M737.8,617l-0.4-1c-0.6,0.3-14.6,6.7-18.1,41.6l1,0.1C723.7,623.5,737.6,617,737.8,617z"/>
		</g>
		<g>
			<g>
				<rect x="776.1" y="656.9" class="st14" width="1.6" height="1"/>
			</g>
			<g>
				<path class="st14" d="M769.5,657.9v-1h3.3v1H769.5z M762.9,657.9v-1h3.3v1H762.9z M756.3,657.9v-1h3.3v1H756.3z M749.7,657.9v-1      h3.3v1H749.7z M743.1,657.9v-1h3.3v1H743.1z M736.5,657.9v-1h3.3v1H736.5z M729.9,657.9v-1h3.3v1H729.9z"/>
			</g>
			<g>
				<rect x="725" y="656.9" class="st14" width="1.6" height="1"/>
			</g>
		</g>
	</g>
	<g>
		<polygon class="st14" points="667.5,358.5 620.4,401.7 620.4,406.3 667.5,363.4   "/>
	</g>
	<g>
		<path class="st14" d="M663.2,367.6l0.4-0.9c0.6,0.2,15.7,6.4,19.4,39.9l-1.1,0.1C678.3,373.9,663.3,367.7,663.2,367.6z"/>
	</g>
	<g>
		<g>
			<rect x="620.4" y="405.8" class="st14" width="1.7" height="1"/>
		</g>
		<g>
			<path class="st14" d="M625.6,406.8v-1h3.5v1H625.6z M632.7,406.8v-1h3.5v1H632.7z M639.8,406.8v-1h3.5v1H639.8z M646.9,406.8v-1     h3.5v1H646.9z M653.9,406.8v-1h3.5v1H653.9z M661,406.8v-1h3.5v1H661z M668.1,406.8v-1h3.5v1H668.1z"/>
		</g>
		<g>
			<rect x="675.2" y="405.8" class="st14" width="1.7" height="1"/>
		</g>
	</g>
	<g>
		<polygon class="st14" points="620.1,470.8 683,481.7 683,485.2 622.7,474.9   "/>
	</g>
	<g>
		<g>
			<rect x="681.4" y="485.8" class="st14" width="1.7" height="1"/>
		</g>
		<g>
			<path class="st14" d="M674.3,486.8v-1h3.5v1H674.3z M667.2,486.8v-1h3.5v1H667.2z M660.1,486.8v-1h3.5v1H660.1z M653,486.8v-1     h3.5v1H653z M646,486.8v-1h3.5v1H646z M638.9,486.8v-1h3.5v1H638.9z M631.8,486.8v-1h3.5v1H631.8z"/>
		</g>
		<g>
			<rect x="626.6" y="485.8" class="st14" width="1.7" height="1"/>
		</g>
	</g>
	<g>
		<polygon class="st14" points="551,607.9 562.4,553 565.8,553 555.1,605.7   "/>
	</g>
	<g>
		<g>
			<rect x="566.1" y="555.1" class="st14" width="1" height="1.4"/>
		</g>
		<g>
			<path class="st14" d="M567.1,562.4h-1v-3h1V562.4z M567.1,568.4h-1v-3h1V568.4z M567.1,574.3h-1v-3h1V574.3z M567.1,580.2h-1v-3     h1V580.2z M567.1,586.2h-1v-3h1V586.2z M567.1,592.1h-1v-3h1V592.1z M567.1,598h-1v-3h1V598z"/>
		</g>
		<g>
			<rect x="566.1" y="601" class="st14" width="1" height="1.4"/>
		</g>
	</g>
	<g>
		<polygon class="st14" points="713,553 701.6,607.9 698.1,607.9 708.9,555.2   "/>
	</g>
	<g>
		<g>
			<rect x="696.9" y="604.4" class="st14" width="1" height="1.4"/>
		</g>
		<g>
			<path class="st14" d="M696.9,598.5h1v3h-1V598.5z M696.9,592.5h1v3h-1V592.5z M696.9,586.6h1v3h-1V586.6z M696.9,580.7h1v3h-1     V580.7z M696.9,574.7h1v3h-1V574.7z M696.9,568.8h1v3h-1V568.8z M696.9,562.9h1v3h-1V562.9z"/>
		</g>
		<g>
			<rect x="696.9" y="558.5" class="st14" width="1" height="1.4"/>
		</g>
	</g>
	<g>
		<g>
			<line class="st15" x1="922.6" y1="195.5" x2="922.6" y2="197"/>
			<line class="st16" x1="922.6" y1="199.9" x2="922.6" y2="239.8"/>
			<line class="st15" x1="922.6" y1="241.3" x2="922.6" y2="242.8"/>
		</g>
	</g>
	<g>
		<g>
			<line class="st15" x1="930.9" y1="195.5" x2="930.9" y2="197"/>
			<line class="st16" x1="930.9" y1="199.9" x2="930.9" y2="239.8"/>
			<line class="st15" x1="930.9" y1="241.3" x2="930.9" y2="242.8"/>
		</g>
	</g>
	<polygon class="st14" points="104.9,132.9 1171.9,132.9 1191.3,114.5 94.6,114.5  "/>
	<rect x="704.9" y="135.7" class="st17" width="39.5" height="116.8"/>
	<rect x="709.9" y="132.5" class="st17" width="186" height="33.4"/>
	<polygon class="st2" points="114.1,132.9 114.1,857 94.6,864.5 94.6,114.5  "/>
	<rect x="235.2" y="130" class="st4" width="129" height="179.5"/>
	<path class="st4" d="M356.1,316.6c0-4-3.2-7.2-7.2-7.2h-98.3c-4,0-7.2,3.2-7.2,7.2c0,1.4,0.4,2.8,1.1,3.9c-0.7,1.2-1.1,2.6-1.1,4.1   v18.7c0,4.4,3.6,8,8,8h96.7c4.4,0,8-3.6,8-8v-18.7c0-1.5-0.4-2.9-1.1-4.1C355.6,319.3,356.1,318,356.1,316.6z"/>
	<polygon class="st2" points="540,132.9 540,276.9 530.2,277.4 530.2,114.5  "/>
	<polygon class="st18" points="113.7,848.3 447.6,848.3 447.6,864.5 94.6,864.5  "/>
	<polygon class="st18" points="790.3,638 1184.4,638 1194.8,645.5 778,645.5  "/>
	<polygon class="st2" points="447.6,768.5 438.8,761.5 438.8,848.3 447.6,864.5  "/>
	<polygon class="st2" points="548,609.6 540,619.6 540,761.5 548,768.5  "/>
	<polygon class="st2" points="683.4,114.9 675.4,132.9 675.4,400.4 683.4,407.4  "/>
	<polygon class="st2" points="911.6,113.3 903.6,131.4 903.6,195.5 911.6,195.5  "/>
	<polygon class="st2" points="1194.8,543.7 1174.4,553.2 1174.4,637.9 1194.8,645.5  "/>
	<rect x="755.7" y="391.2" class="st3" width="388.9" height="232.9"/>
	<rect x="887.5" y="484.7" class="st3" width="116.8" height="46"/>
	<path class="st3" d="M1102.2,534.4c0,4.4-3.6,8-8,8h-40.7c-4.4,0-8-3.6-8-8V477c0-4.4,3.6-8,8-8h40.7c4.4,0,8,3.6,8,8V534.4z"/>
	<polygon class="st2" points="1191.3,114.5 1171.9,134 1171.9,490.7 1191.3,488.2  "/>
	<polygon class="st14" points="438.8,761.5 541,761.5 548,768.5 447.6,768.5  "/>
	<rect x="70.9" y="92" class="st13" width="1144.2" height="22.5"/>
	<rect x="70.9" y="92" class="st13" width="23.7" height="784.5"/>
	<rect x="94.6" y="396.3" class="st14" width="357.5" height="22"/>
	<polygon class="st19" points="94.6,418.2 114.1,427.9 441.3,427.9 452.1,418.2  "/>
	<polygon class="st19" points="94.6,667.4 114.1,677 441.3,677 452.1,667.4  "/>
	<polygon class="st19" points="704.9,294.7 715.3,304.4 922.6,304.4 933.4,294.7  "/>
	<polygon class="st19" points="715.3,304.4 715.3,399.3 704.9,407.3 704.9,294.7  "/>
	<rect x="704.9" y="272.7" class="st13" width="206.7" height="22"/>
	<rect x="94.6" y="645.4" class="st14" width="357.5" height="22"/>
	<rect x="911.6" y="92" class="st13" width="22" height="103.4"/>
	<rect x="508.1" y="92" class="st13" width="22" height="206.8"/>
	<rect x="683" y="92" class="st13" width="22" height="315.2"/>
	<polygon class="st2" points="911.6,272.7 903.6,272.4 903.6,243 911.6,243  "/>
	<rect x="238.1" y="132.9" class="st20" width="129" height="172.5"/>
	<rect x="238.1" y="126.9" class="st21" width="129" height="6"/>
	<path class="st21" d="M367.1,164.7c-5.7-3.6-13.6-5.7-25.1-0.9c-17.8,7.4-47.6,10.7-71.9,2.7c-14.5-4.8-25.5-2.3-32,0.5v138.4h129   V164.7z"/>
	<g>
		<g>
			<circle class="st22" cx="247.5" cy="171.1" r="2.7"/>
			<circle class="st22" cx="256.6" cy="182.4" r="2.7"/>
			<circle class="st22" cx="270.6" cy="171.1" r="2.7"/>
			<circle class="st22" cx="283.4" cy="187.7" r="2.7"/>
			<circle class="st22" cx="293.6" cy="176.4" r="2.7"/>
			<circle class="st22" cx="309" cy="189.1" r="2.7"/>
			<circle class="st22" cx="319.1" cy="176.4" r="2.7"/>
			<circle class="st22" cx="340.3" cy="187.7" r="2.7"/>
			<circle class="st22" cx="351.4" cy="169.6" r="2.7"/>
		</g>
		<g>
			<circle class="st22" cx="247.5" cy="199.1" r="2.7"/>
			<circle class="st22" cx="256.6" cy="210.5" r="2.7"/>
			<circle class="st22" cx="270.6" cy="199.1" r="2.7"/>
			<circle class="st22" cx="283.4" cy="215.8" r="2.7"/>
			<circle class="st22" cx="293.6" cy="204.5" r="2.7"/>
			<circle class="st22" cx="309" cy="217.1" r="2.7"/>
			<circle class="st22" cx="319.1" cy="204.5" r="2.7"/>
			<circle class="st22" cx="340.3" cy="215.8" r="2.7"/>
			<circle class="st22" cx="351.4" cy="197.7" r="2.7"/>
		</g>
		<g>
			<circle class="st22" cx="247.5" cy="227.2" r="2.7"/>
			<circle class="st22" cx="256.6" cy="238.5" r="2.7"/>
			<circle class="st22" cx="270.6" cy="227.2" r="2.7"/>
			<circle class="st22" cx="283.4" cy="243.8" r="2.7"/>
			<circle class="st22" cx="293.6" cy="232.5" r="2.7"/>
			<circle class="st22" cx="309" cy="245.2" r="2.7"/>
			<circle class="st22" cx="319.1" cy="232.5" r="2.7"/>
			<circle class="st22" cx="340.3" cy="243.8" r="2.7"/>
			<circle class="st22" cx="351.4" cy="225.7" r="2.7"/>
		</g>
		<g>
			<circle class="st22" cx="247.5" cy="255.2" r="2.7"/>
			<circle class="st22" cx="256.6" cy="266.6" r="2.7"/>
			<circle class="st22" cx="270.6" cy="255.2" r="2.7"/>
			<circle class="st22" cx="283.4" cy="271.9" r="2.7"/>
			<circle class="st22" cx="293.6" cy="260.5" r="2.7"/>
			<circle class="st22" cx="309" cy="273.2" r="2.7"/>
			<circle class="st22" cx="319.1" cy="260.5" r="2.7"/>
			<circle class="st22" cx="340.3" cy="271.9" r="2.7"/>
			<circle class="st22" cx="351.4" cy="253.8" r="2.7"/>
		</g>
		<g>
			<circle class="st22" cx="247.5" cy="283.3" r="2.7"/>
			<circle class="st22" cx="256.6" cy="294.6" r="2.7"/>
			<circle class="st22" cx="270.6" cy="283.3" r="2.7"/>
			<circle class="st22" cx="283.4" cy="299.9" r="2.7"/>
			<circle class="st22" cx="293.6" cy="288.6" r="2.7"/>
			<circle class="st22" cx="309" cy="301.2" r="2.7"/>
			<circle class="st22" cx="319.1" cy="288.6" r="2.7"/>
			<circle class="st22" cx="340.3" cy="299.9" r="2.7"/>
			<circle class="st22" cx="351.4" cy="281.8" r="2.7"/>
		</g>
	</g>
	<g>
		<path class="st23" d="M248.9,136.8v17.7c0,0,21.2,13,46,0v-17.7C294.9,136.8,270.8,127.1,248.9,136.8z"/>
		<path class="st24" d="M294.9,154.4v-5.1c-27.7,12-41,0-46-7.1v12.2C248.9,154.4,270.1,167.4,294.9,154.4z"/>
	</g>
	<g>
		<path class="st23" d="M309,136.8v17.7c0,0,21.2,13,46,0v-17.7C355,136.8,330.9,127.1,309,136.8z"/>
		<path class="st24" d="M355,154.4v-5.1c-27.7,12-41,0-46-7.1v12.2C309,154.4,330.2,167.4,355,154.4z"/>
	</g>
	<path class="st23" d="M311.7,249.9c0,4.4-3.6,8-8,8h-4.8c-4.4,0-8-3.6-8-8v-77c0-4.4,3.6-8,8-8h4.8c4.4,0,8,3.6,8,8V249.9z"/>
	<path class="st24" d="M298.4,249.9v-77c0-4,2.9-7.2,6.7-7.9c-0.4-0.1-0.9-0.1-1.3-0.1h-4.8c-4.4,0-8,3.6-8,8v77c0,4.4,3.6,8,8,8   h4.8c0.5,0,0.9,0,1.3-0.1C301.3,257.1,298.4,253.8,298.4,249.9z"/>
	<g>
		<rect x="180.7" y="140.8" class="st4" width="51.1" height="34.1"/>
		<rect x="182.7" y="137.1" class="st25" width="51.1" height="34.1"/>
		<polygon class="st26" points="182.7,137.1 207.6,154.1 233.9,137.1   "/>
		<g>
			<path class="st20" d="M198.2,149.7c-0.1,0-0.2-0.1-0.3-0.2c-0.3-0.4-6.6-9.1-1.6-13.5c5-4.3,12.1,0.6,12.2,0.7     c0.2,0.1,0.2,0.4,0.1,0.5c-0.1,0.2-0.4,0.2-0.5,0.1c-0.1,0-6.7-4.6-11.3-0.7c-4.5,3.9,1.6,12.4,1.7,12.5c0.1,0.2,0.1,0.4-0.1,0.5     C198.3,149.7,198.2,149.7,198.2,149.7z"/>
		</g>
		<g>
			<circle class="st25" cx="207.6" cy="152.1" r="9.9"/>
			<circle class="st25" cx="207.6" cy="149.3" r="4"/>
		</g>
		<g>
			<circle class="st27" cx="207.6" cy="150.3" r="9.9"/>
			<circle class="st20" cx="207.6" cy="147.6" r="4"/>
		</g>
		<rect x="184.5" y="167.6" class="st27" width="47.4" height="1.6"/>
	</g>
	<g>
		<rect x="373.2" y="140.8" class="st4" width="51.1" height="34.1"/>
		<rect x="371.2" y="137.1" class="st25" width="51.1" height="34.1"/>
		<polygon class="st26" points="422.3,137.1 397.4,154.1 371.2,137.1   "/>
		<g>
			<path class="st20" d="M406.9,149.7c0.1,0,0.2-0.1,0.3-0.2c0.3-0.4,6.6-9.1,1.6-13.5c-5-4.3-12.1,0.6-12.2,0.7     c-0.2,0.1-0.2,0.4-0.1,0.5c0.1,0.2,0.4,0.2,0.5,0.1c0.1,0,6.7-4.6,11.3-0.7c4.5,3.9-1.6,12.4-1.7,12.5c-0.1,0.2-0.1,0.4,0.1,0.5     C406.7,149.7,406.8,149.7,406.9,149.7z"/>
		</g>
		<g>
			<circle class="st25" cx="397.4" cy="152.1" r="9.9"/>
			<circle class="st25" cx="397.4" cy="149.3" r="4"/>
		</g>
		<g>
			<circle class="st27" cx="397.4" cy="150.3" r="9.9"/>
			<circle class="st20" cx="397.4" cy="147.6" r="4"/>
		</g>
		<rect x="373.1" y="167.6" class="st27" width="47.4" height="1.6"/>
	</g>
	<g>
		<rect x="120.5" y="584.6" class="st11" width="34.1" height="51.1"/>
		<rect x="116.8" y="586.6" class="st21" width="34.1" height="51.1"/>
		<polygon class="st28" points="116.8,586.6 133.8,611.5 116.8,637.7   "/>
		<g>
			<path class="st20" d="M129.5,602.1c0-0.1-0.1-0.2-0.2-0.3c-0.4-0.3-9.1-6.6-13.5-1.6c-4.3,5,0.6,12.1,0.7,12.2     c0.1,0.2,0.4,0.2,0.5,0.1c0.2-0.1,0.2-0.4,0.1-0.5c0-0.1-4.6-6.7-0.7-11.3c3.9-4.5,12.4,1.6,12.5,1.7c0.2,0.1,0.4,0.1,0.5-0.1     C129.4,602.2,129.5,602.1,129.5,602.1z"/>
		</g>
		<g>
			<circle class="st25" cx="131.8" cy="611.5" r="9.9"/>
			<circle class="st25" cx="129.1" cy="611.5" r="4"/>
		</g>
		<g>
			<circle class="st27" cx="130.1" cy="611.5" r="9.9"/>
			<circle class="st20" cx="127.3" cy="611.5" r="4"/>
		</g>
		<rect x="147.3" y="588.4" class="st29" width="1.6" height="47.4"/>
	</g>
	<path class="st2" d="M358.4,340.7c0,4.4-3.6,8-8,8h-96.7c-4.4,0-8-3.6-8-8V322c0-4.4,3.6-8,8-8h96.7c4.4,0,8,3.6,8,8V340.7z"/>
	<path class="st2" d="M350.1,324.5c3.8,0,6.9-3,7.1-6.8c-1.4-2.3-3.9-3.8-6.8-3.8h-96.7c-4.2,0-7.6,3.2-8,7.4c1.3,1.9,3.5,3.2,6,3.2   H350.1z"/>
	<path class="st2" d="M302.1,313.1c0-0.6-0.5-1.2-1.2-1.2l0,0c-0.6,0-1.2,0.5-1.2,1.2v34.4c0,0.6,0.5,1.2,1.2,1.2l0,0   c0.6,0,1.2-0.5,1.2-1.2V313.1z"/>
	<path class="st30" d="M358.4,314c0,4-3.2,7.2-7.2,7.2h-98.3c-4,0-7.2-3.2-7.2-7.2l0,0c0-4,3.2-7.2,7.2-7.2h98.3   C355.2,306.8,358.4,310,358.4,314L358.4,314z"/>
	<g>
		<path class="st10" d="M309.4,834.6c0,4,3.2,7.2,7.2,7.2h98.3c4,0,7.2-3.2,7.2-7.2c0-1.4-0.4-2.8-1.1-3.9c0.7-1.2,1.1-2.6,1.1-4.1    v-18.7c0-4.4-3.6-8-8-8h-96.7c-4.4,0-8,3.6-8,8v18.7c0,1.5,0.4,2.9,1.1,4.1C309.8,831.8,309.4,833.1,309.4,834.6z"/>
		<path class="st31" d="M307.1,810.4c0-4.4,3.6-8,8-8h96.7c4.4,0,8,3.6,8,8v18.7c0,4.4-3.6,8-8,8h-96.7c-4.4,0-8-3.6-8-8V810.4z"/>
		<path class="st2" d="M315.4,826.6c-3.8,0-6.9,3-7.1,6.8c1.4,2.3,3.9,3.8,6.8,3.8h96.7c4.2,0,7.6-3.2,8-7.4c-1.3-1.9-3.5-3.2-6-3.2    H315.4z"/>
		<path class="st2" d="M363.4,838c0,0.6,0.5,1.2,1.2,1.2l0,0c0.6,0,1.2-0.5,1.2-1.2v-34.4c0-0.6-0.5-1.2-1.2-1.2l0,0    c-0.6,0-1.2,0.5-1.2,1.2V838z"/>
		<path class="st32" d="M307.1,837.1c0-4,3.2-7.2,7.2-7.2h98.3c4,0,7.2,3.2,7.2,7.2l0,0c0,4-3.2,7.2-7.2,7.2h-98.3    C310.3,844.3,307.1,841.1,307.1,837.1L307.1,837.1z"/>
	</g>
	<g>
		<path class="st3" d="M871.4,617.2c0,6.1,4.9,11,11,11h150.4c6.1,0,11-4.9,11-11c0-2.2-0.7-4.2-1.8-5.9c1.1-1.8,1.8-4,1.8-6.3    v-28.7c0-6.8-5.5-12.2-12.2-12.2H883.6c-6.8,0-12.2,5.5-12.2,12.2v28.7c0,2.3,0.6,4.5,1.8,6.3C872.1,612.9,871.4,615,871.4,617.2z    "/>
		<path class="st31" d="M867.9,580.2c0-6.8,5.5-12.2,12.2-12.2H1028c6.8,0,12.2,5.5,12.2,12.2v28.7c0,6.8-5.5,12.2-12.2,12.2H880.1    c-6.8,0-12.2-5.5-12.2-12.2V580.2z"/>
		<path class="st2" d="M880.6,604.9c-5.8,0-10.6,4.6-10.9,10.3c2.2,3.5,6,5.9,10.4,5.9H1028c6.4,0,11.7-5,12.2-11.3    c-2-3-5.3-4.9-9.1-4.9H880.6z"/>
		<path class="st2" d="M954,622.4c0,1,0.8,1.8,1.8,1.8l0,0c1,0,1.8-0.8,1.8-1.8v-52.6c0-1-0.8-1.8-1.8-1.8l0,0c-1,0-1.8,0.8-1.8,1.8    V622.4z"/>
		<path class="st32" d="M867.9,621.1c0-6,4.9-11,11-11h150.4c6.1,0,11,4.9,11,11l0,0c0,6.1-4.9,11-11,11H878.8    C872.8,632.1,867.9,627.2,867.9,621.1L867.9,621.1z"/>
	</g>
	<g>
		<path class="st3" d="M805.2,408.4c-6.1,0-11,4.9-11,11v150.4c0,6.1,4.9,11,11,11c2.2,0,4.2-0.7,5.9-1.8c1.8,1.1,4,1.8,6.3,1.8    h28.7c6.8,0,12.2-5.5,12.2-12.2V420.6c0-6.8-5.5-12.2-12.2-12.2h-28.7c-2.3,0-4.5,0.6-6.3,1.8    C809.4,409.1,807.4,408.4,805.2,408.4z"/>
		<path class="st31" d="M842.1,404.9c6.8,0,12.2,5.5,12.2,12.2V565c0,6.8-5.5,12.2-12.2,12.2h-28.7c-6.8,0-12.2-5.5-12.2-12.2V417.1    c0-6.8,5.5-12.2,12.2-12.2H842.1z"/>
		<path class="st2" d="M817.4,417.6c0-5.8-4.6-10.6-10.3-10.9c-3.5,2.2-5.9,6-5.9,10.4V565c0,6.4,5,11.7,11.3,12.2    c3-2,4.9-5.3,4.9-9.1V417.6z"/>
		<path class="st2" d="M799.9,491c-1,0-1.8,0.8-1.8,1.8l0,0c0,1,0.8,1.8,1.8,1.8h52.6c1,0,1.8-0.8,1.8-1.8l0,0c0-1-0.8-1.8-1.8-1.8    H799.9z"/>
		<path class="st32" d="M801.2,404.9c6,0,11,4.9,11,11v150.4c0,6.1-4.9,11-11,11l0,0c-6.1,0-11-4.9-11-11V415.8    C790.2,409.8,795.1,404.9,801.2,404.9L801.2,404.9z"/>
	</g>
	<rect x="112.4" y="691.9" class="st10" width="179.4" height="128.9"/>
	<rect x="115.3" y="689" class="st20" width="172.4" height="128.9"/>
	<rect x="109.3" y="689" class="st19" width="6" height="128.9"/>
	<path class="st33" d="M147.1,689c-3.6,5.7-5.7,13.6-0.9,25.1c7.4,17.8,10.7,47.6,2.7,71.8c-4.8,14.5-2.3,25.5,0.5,32h138.3V689   H147.1z"/>
	<path class="st33" d="M232.1,749.4c4.4,0,8,3.6,8,8v4.7c0,4.4-3.6,8-8,8h-76.9c-4.4,0-8-3.6-8-8v-4.7c0-4.4,3.6-8,8-8H232.1z"/>
	<g>
		<g>
			<circle class="st22" cx="153.4" cy="808.5" r="2.6"/>
			<circle class="st22" cx="164.8" cy="799.4" r="2.7"/>
			<circle class="st22" cx="153.4" cy="785.4" r="2.7"/>
			<circle class="st22" cx="170.1" cy="772.6" r="2.7"/>
			<circle class="st22" cx="158.7" cy="762.5" r="2.7"/>
			<circle class="st22" cx="171.4" cy="747" r="2.7"/>
			<circle class="st22" cx="158.7" cy="736.9" r="2.7"/>
			<circle class="st22" cx="170.1" cy="715.8" r="2.7"/>
			<circle class="st22" cx="152" cy="704.7" r="2.7"/>
		</g>
		<g>
			<circle class="st22" cx="181.5" cy="808.5" r="2.6"/>
			<circle class="st22" cx="192.8" cy="799.4" r="2.7"/>
			<circle class="st22" cx="181.5" cy="785.4" r="2.7"/>
			<circle class="st22" cx="198.1" cy="772.6" r="2.7"/>
			<circle class="st22" cx="186.8" cy="762.5" r="2.7"/>
			<circle class="st22" cx="199.4" cy="747" r="2.7"/>
			<circle class="st22" cx="186.8" cy="736.9" r="2.7"/>
			<circle class="st22" cx="198.1" cy="715.8" r="2.7"/>
			<circle class="st22" cx="180" cy="704.7" r="2.7"/>
		</g>
		<g>
			<circle class="st22" cx="209.5" cy="808.5" r="2.6"/>
			<circle class="st22" cx="220.8" cy="799.4" r="2.7"/>
			<circle class="st22" cx="209.5" cy="785.4" r="2.7"/>
			<circle class="st22" cx="226.1" cy="772.6" r="2.7"/>
			<circle class="st22" cx="214.8" cy="762.5" r="2.7"/>
			<circle class="st22" cx="227.4" cy="747" r="2.7"/>
			<circle class="st22" cx="214.8" cy="736.9" r="2.7"/>
			<circle class="st22" cx="226.1" cy="715.8" r="2.7"/>
			<circle class="st22" cx="208" cy="704.7" r="2.7"/>
		</g>
		<g>
			<circle class="st22" cx="237.5" cy="808.5" r="2.6"/>
			<circle class="st22" cx="248.8" cy="799.4" r="2.7"/>
			<circle class="st22" cx="237.5" cy="785.4" r="2.7"/>
			<circle class="st22" cx="254.1" cy="772.6" r="2.7"/>
			<circle class="st22" cx="242.8" cy="762.5" r="2.7"/>
			<circle class="st22" cx="255.4" cy="747" r="2.7"/>
			<circle class="st22" cx="242.8" cy="736.9" r="2.7"/>
			<circle class="st22" cx="254.1" cy="715.8" r="2.7"/>
			<circle class="st22" cx="236" cy="704.7" r="2.7"/>
		</g>
		<g>
			<circle class="st22" cx="265.5" cy="808.5" r="2.6"/>
			<circle class="st22" cx="276.8" cy="799.4" r="2.7"/>
			<circle class="st22" cx="265.5" cy="785.4" r="2.7"/>
			<circle class="st22" cx="282.1" cy="772.6" r="2.7"/>
			<circle class="st22" cx="270.8" cy="762.5" r="2.7"/>
			<circle class="st22" cx="283.4" cy="747" r="2.7"/>
			<circle class="st22" cx="270.8" cy="736.9" r="2.7"/>
			<circle class="st22" cx="282.1" cy="715.8" r="2.7"/>
			<circle class="st22" cx="264" cy="704.7" r="2.7"/>
		</g>
	</g>
	<g>
		<path class="st4" d="M119.1,807.1h17.7c0,0,13-21.1,0-46h-17.7C119.1,761.1,109.5,785.3,119.1,807.1z"/>
		<path class="st4" d="M136.8,761.1h-5.1c12,27.7,0,40.9-7.1,46h12.2C136.8,807.1,149.8,785.9,136.8,761.1z"/>
	</g>
	<g>
		<path class="st4" d="M119.1,747h17.7c0,0,13-21.1,0-46h-17.7C119.1,701.1,109.5,725.2,119.1,747z"/>
		<path class="st4" d="M136.8,701.1h-5.1c12,27.7,0,40.9-7.1,46h12.2C136.8,747,149.8,725.9,136.8,701.1z"/>
	</g>
	<path class="st4" d="M232.1,744.4c4.4,0,8,3.6,8,8v4.7c0,4.4-3.6,8-8,8h-76.9c-4.4,0-8-3.6-8-8v-4.7c0-4.4,3.6-8,8-8H232.1z"/>
	<path class="st4" d="M232.1,757.7h-76.9c-4,0-7.2-2.9-7.9-6.7c-0.1,0.4-0.1,0.9-0.1,1.3v4.7c0,4.4,3.6,8,8,8h76.9c4.4,0,8-3.6,8-8   v-4.7c0-0.5,0-0.9-0.1-1.3C239.4,754.8,236.1,757.7,232.1,757.7z"/>
	<g>
		<rect x="318.7" y="680.9" class="st10" width="40.6" height="27.1"/>
		<rect x="320.3" y="678" class="st4" width="40.6" height="27.1"/>
		<polygon class="st26" points="320.3,678 340.1,691.5 361,678   "/>
		<g>
			<path class="st20" d="M332.6,688c-0.1,0-0.2,0-0.2-0.1c-0.2-0.3-5.3-7.3-1.3-10.7c4-3.4,9.6,0.5,9.7,0.5c0.1,0.1,0.2,0.3,0.1,0.4     c-0.1,0.1-0.3,0.2-0.4,0.1c-0.1,0-5.3-3.7-8.9-0.6c-3.6,3.1,1.3,9.8,1.4,9.9c0.1,0.1,0.1,0.3-0.1,0.4     C332.7,688,332.7,688,332.6,688z"/>
		</g>
		<g>
			<circle class="st25" cx="340.1" cy="689.9" r="7.8"/>
			<circle class="st25" cx="340.1" cy="687.7" r="3.2"/>
		</g>
		<g>
			<circle class="st27" cx="340.1" cy="688.5" r="7.8"/>
			<circle class="st20" cx="340.1" cy="686.3" r="3.2"/>
		</g>
		<rect x="321.8" y="702.2" class="st27" width="37.7" height="1.3"/>
	</g>
	<polygon class="st11" points="144.1,480 144.1,483 116,483 116,481.9 109.2,481.9 109.2,583.3 116,583.3 116,581.6 144.1,581.6    144.1,587 318.7,587 318.7,480  "/>
	<rect x="111.1" y="476.7" class="st4" width="200.6" height="98.5"/>
	<path class="st4" d="M113.5,551.8h17.7c0,0,13-21.2,0-46h-17.7C113.5,505.8,103.8,530,113.5,551.8z"/>
	<rect x="104.3" y="475.5" class="st21" width="6.8" height="101.4"/>
	<g>
		<rect x="139.2" y="473.7" class="st19" width="174.6" height="107"/>
		<rect x="144.6" y="473.7" class="st34" width="5" height="107"/>
		<rect x="153.4" y="473.7" class="st34" width="5" height="107"/>
		<rect x="162.3" y="473.7" class="st34" width="5" height="107"/>
		<rect x="171.2" y="473.7" class="st34" width="5" height="107"/>
		<rect x="180.1" y="473.7" class="st34" width="5" height="107"/>
		<rect x="189" y="473.7" class="st34" width="5" height="107"/>
		<rect x="197.9" y="473.7" class="st34" width="5" height="107"/>
		<rect x="206.8" y="473.7" class="st34" width="5" height="107"/>
		<rect x="215.7" y="473.7" class="st34" width="5" height="107"/>
		<rect x="224.6" y="473.7" class="st34" width="5" height="107"/>
		<rect x="233.5" y="473.7" class="st34" width="5" height="107"/>
		<rect x="242.4" y="473.7" class="st34" width="5" height="107"/>
		<rect x="251.3" y="473.7" class="st34" width="5" height="107"/>
		<rect x="260.1" y="473.7" class="st34" width="5" height="107"/>
		<rect x="269" y="473.7" class="st34" width="5" height="107"/>
		<rect x="277.9" y="473.7" class="st34" width="5" height="107"/>
		<rect x="286.8" y="473.7" class="st34" width="5" height="107"/>
		<rect x="295.7" y="473.7" class="st34" width="5" height="107"/>
		<rect x="304.6" y="473.7" class="st34" width="5" height="107"/>
	</g>
	<path class="st19" d="M229.5,538.6c4.4,0,8,3.6,8,8v4.8c0,4.4-3.6,8-8,8h-77c-4.4,0-8-3.6-8-8v-4.8c0-4.4,3.6-8,8-8H229.5z"/>
	<path class="st14" d="M229.5,535.7c4.4,0,8,3.6,8,8v4.8c0,4.4-3.6,8-8,8h-77c-4.4,0-8-3.6-8-8v-4.8c0-4.4,3.6-8,8-8H229.5z"/>
	<path class="st14" d="M229.5,549h-77c-4,0-7.2-2.9-7.9-6.7c-0.1,0.4-0.1,0.9-0.1,1.3v4.8c0,4.4,3.6,8,8,8h77c4.4,0,8-3.6,8-8v-4.8   c0-0.5,0-0.9-0.1-1.3C236.8,546.1,233.5,549,229.5,549z"/>
	<g>
		<path class="st14" d="M114.6,549h17.7c0,0,13-21.2,0-46h-17.7C114.6,503,105,527.1,114.6,549z"/>
		<path class="st14" d="M132.3,503h-5.1c12,27.7,0,41-7.1,46h12.2C132.3,549,145.3,527.8,132.3,503z"/>
	</g>
	<rect x="110.3" y="424" class="st35" width="149.8" height="28.6"/>
	<polyline class="st36" points="110.3,452.6 114.1,455 257.2,455 260.1,452.6 111.1,452.6  "/>
	<g>
		<ellipse class="st12" cx="413.9" cy="517.5" rx="10.7" ry="14.8"/>
		<ellipse class="st20" cx="415.3" cy="514.7" rx="10.7" ry="14.8"/>
		<ellipse class="st20" cx="415.3" cy="497.1" rx="10.7" ry="2.9"/>
	</g>
	<g>
		<ellipse class="st4" cx="593" cy="654.6" rx="10.7" ry="14.8"/>
		<ellipse class="st20" cx="591.6" cy="657.4" rx="10.7" ry="14.8"/>
		<ellipse class="st20" cx="591.6" cy="675.1" rx="10.7" ry="2.9"/>
	</g>
	<g>
		<ellipse class="st4" cx="548.7" cy="373.6" rx="10.7" ry="14.8"/>
		<ellipse class="st20" cx="547.4" cy="376.4" rx="10.7" ry="14.8"/>
		<ellipse class="st20" cx="547.4" cy="394.1" rx="10.7" ry="2.9"/>
	</g>
	<g>
		<ellipse class="st7" cx="557.2" cy="248.7" rx="12.8" ry="17.8"/>
		<ellipse class="st20" cx="555.6" cy="252.1" rx="12.8" ry="17.8"/>
		<ellipse class="st20" cx="555.6" cy="273.3" rx="12.8" ry="3.4"/>
	</g>
	<rect x="552.4" y="126.9" class="st20" width="110.8" height="45.7"/>
	<path class="st37" d="M644.9,132.5h-86.2V167h86.2c4.4,0,8-3.6,8-8v-18.5C652.9,136,649.3,132.5,644.9,132.5z"/>
	<circle class="st2" cx="645.1" cy="149.9" r="1.6"/>
	<path class="st20" d="M658.7,147.4c0,0.4-0.3,0.7-0.7,0.7h-9c-0.4,0-0.7-0.3-0.7-0.7l0,0c0-0.4,0.3-0.7,0.7-0.7h9   C658.4,146.8,658.7,147.1,658.7,147.4L658.7,147.4z"/>
	<g>
		<rect x="641.2" y="234.4" class="st20" width="32.9" height="57.7"/>
		<path class="st37" d="M671.4,242.4h-14.1c-5.4,0-9.8,4.4-9.8,9.8v23.6c0,5.4,4.4,9.8,9.8,9.8h14.1V242.4z"/>
		<rect x="674.2" y="239.1" class="st20" width="6.8" height="49.6"/>
	</g>
	<path class="st20" d="M681.9,181.5c0,0.4-0.4,0.8-0.8,0.8H538.7c-0.4,0-0.8-0.4-0.8-0.8l0,0c0-0.4,0.4-0.8,0.8-0.8h142.4   C681.6,180.7,681.9,181.1,681.9,181.5L681.9,181.5z"/>
	<g>
		<path class="st20" d="M541.4,182.8c0,0.2-0.2,0.4-0.4,0.4l0,0c-0.2,0-0.4-0.2-0.4-0.4v-2.3c0-0.2,0.2-0.4,0.4-0.4l0,0    c0.2,0,0.4,0.2,0.4,0.4V182.8z"/>
		<path class="st20" d="M544,182.8c0,0.2-0.2,0.4-0.4,0.4l0,0c-0.2,0-0.4-0.2-0.4-0.4v-2.3c0-0.2,0.2-0.4,0.4-0.4l0,0    c0.2,0,0.4,0.2,0.4,0.4V182.8z"/>
		<path class="st20" d="M546.5,182.8c0,0.2-0.2,0.4-0.4,0.4l0,0c-0.2,0-0.4-0.2-0.4-0.4v-2.3c0-0.2,0.2-0.4,0.4-0.4l0,0    c0.2,0,0.4,0.2,0.4,0.4V182.8z"/>
		<path class="st20" d="M549.1,182.8c0,0.2-0.2,0.4-0.4,0.4l0,0c-0.2,0-0.4-0.2-0.4-0.4v-2.3c0-0.2,0.2-0.4,0.4-0.4l0,0    c0.2,0,0.4,0.2,0.4,0.4V182.8z"/>
		<path class="st20" d="M551.7,182.8c0,0.2-0.2,0.4-0.4,0.4l0,0c-0.2,0-0.4-0.2-0.4-0.4v-2.3c0-0.2,0.2-0.4,0.4-0.4l0,0    c0.2,0,0.4,0.2,0.4,0.4V182.8z"/>
		<path class="st20" d="M554.2,182.8c0,0.2-0.2,0.4-0.4,0.4l0,0c-0.2,0-0.4-0.2-0.4-0.4v-2.3c0-0.2,0.2-0.4,0.4-0.4l0,0    c0.2,0,0.4,0.2,0.4,0.4V182.8z"/>
		<path class="st20" d="M556.8,182.8c0,0.2-0.2,0.4-0.4,0.4l0,0c-0.2,0-0.4-0.2-0.4-0.4v-2.3c0-0.2,0.2-0.4,0.4-0.4l0,0    c0.2,0,0.4,0.2,0.4,0.4V182.8z"/>
		<path class="st20" d="M559.4,182.8c0,0.2-0.2,0.4-0.4,0.4l0,0c-0.2,0-0.4-0.2-0.4-0.4v-2.3c0-0.2,0.2-0.4,0.4-0.4l0,0    c0.2,0,0.4,0.2,0.4,0.4V182.8z"/>
		<path class="st20" d="M561.9,182.8c0,0.2-0.2,0.4-0.4,0.4l0,0c-0.2,0-0.4-0.2-0.4-0.4v-2.3c0-0.2,0.2-0.4,0.4-0.4l0,0    c0.2,0,0.4,0.2,0.4,0.4V182.8z"/>
		<path class="st20" d="M564.5,182.8c0,0.2-0.2,0.4-0.4,0.4l0,0c-0.2,0-0.4-0.2-0.4-0.4v-2.3c0-0.2,0.2-0.4,0.4-0.4l0,0    c0.2,0,0.4,0.2,0.4,0.4V182.8z"/>
		<path class="st20" d="M567.1,182.8c0,0.2-0.2,0.4-0.4,0.4l0,0c-0.2,0-0.4-0.2-0.4-0.4v-2.3c0-0.2,0.2-0.4,0.4-0.4l0,0    c0.2,0,0.4,0.2,0.4,0.4V182.8z"/>
		<path class="st20" d="M569.7,182.8c0,0.2-0.2,0.4-0.4,0.4l0,0c-0.2,0-0.4-0.2-0.4-0.4v-2.3c0-0.2,0.2-0.4,0.4-0.4l0,0    c0.2,0,0.4,0.2,0.4,0.4V182.8z"/>
		<path class="st20" d="M572.2,182.8c0,0.2-0.2,0.4-0.4,0.4l0,0c-0.2,0-0.4-0.2-0.4-0.4v-2.3c0-0.2,0.2-0.4,0.4-0.4l0,0    c0.2,0,0.4,0.2,0.4,0.4V182.8z"/>
		<path class="st20" d="M574.8,182.8c0,0.2-0.2,0.4-0.4,0.4l0,0c-0.2,0-0.4-0.2-0.4-0.4v-2.3c0-0.2,0.2-0.4,0.4-0.4l0,0    c0.2,0,0.4,0.2,0.4,0.4V182.8z"/>
		<path class="st20" d="M577.4,182.8c0,0.2-0.2,0.4-0.4,0.4l0,0c-0.2,0-0.4-0.2-0.4-0.4v-2.3c0-0.2,0.2-0.4,0.4-0.4l0,0    c0.2,0,0.4,0.2,0.4,0.4V182.8z"/>
		<path class="st20" d="M579.9,182.8c0,0.2-0.2,0.4-0.4,0.4l0,0c-0.2,0-0.4-0.2-0.4-0.4v-2.3c0-0.2,0.2-0.4,0.4-0.4l0,0    c0.2,0,0.4,0.2,0.4,0.4V182.8z"/>
		<path class="st20" d="M582.5,182.8c0,0.2-0.2,0.4-0.4,0.4l0,0c-0.2,0-0.4-0.2-0.4-0.4v-2.3c0-0.2,0.2-0.4,0.4-0.4l0,0    c0.2,0,0.4,0.2,0.4,0.4V182.8z"/>
		<path class="st20" d="M585.1,182.8c0,0.2-0.2,0.4-0.4,0.4l0,0c-0.2,0-0.4-0.2-0.4-0.4v-2.3c0-0.2,0.2-0.4,0.4-0.4l0,0    c0.2,0,0.4,0.2,0.4,0.4V182.8z"/>
		<path class="st20" d="M587.6,182.8c0,0.2-0.2,0.4-0.4,0.4l0,0c-0.2,0-0.4-0.2-0.4-0.4v-2.3c0-0.2,0.2-0.4,0.4-0.4l0,0    c0.2,0,0.4,0.2,0.4,0.4V182.8z"/>
	</g>
	<g>
		<path class="st20" d="M627.9,182.8c0,0.2-0.2,0.4-0.4,0.4l0,0c-0.2,0-0.4-0.2-0.4-0.4v-2.3c0-0.2,0.2-0.4,0.4-0.4l0,0    c0.2,0,0.4,0.2,0.4,0.4V182.8z"/>
		<path class="st20" d="M630.5,182.8c0,0.2-0.2,0.4-0.4,0.4l0,0c-0.2,0-0.4-0.2-0.4-0.4v-2.3c0-0.2,0.2-0.4,0.4-0.4l0,0    c0.2,0,0.4,0.2,0.4,0.4V182.8z"/>
		<path class="st20" d="M633,182.8c0,0.2-0.2,0.4-0.4,0.4l0,0c-0.2,0-0.4-0.2-0.4-0.4v-2.3c0-0.2,0.2-0.4,0.4-0.4l0,0    c0.2,0,0.4,0.2,0.4,0.4V182.8z"/>
		<path class="st20" d="M635.6,182.8c0,0.2-0.2,0.4-0.4,0.4l0,0c-0.2,0-0.4-0.2-0.4-0.4v-2.3c0-0.2,0.2-0.4,0.4-0.4l0,0    c0.2,0,0.4,0.2,0.4,0.4V182.8z"/>
		<path class="st20" d="M638.2,182.8c0,0.2-0.2,0.4-0.4,0.4l0,0c-0.2,0-0.4-0.2-0.4-0.4v-2.3c0-0.2,0.2-0.4,0.4-0.4l0,0    c0.2,0,0.4,0.2,0.4,0.4V182.8z"/>
		<path class="st20" d="M640.7,182.8c0,0.2-0.2,0.4-0.4,0.4l0,0c-0.2,0-0.4-0.2-0.4-0.4v-2.3c0-0.2,0.2-0.4,0.4-0.4l0,0    c0.2,0,0.4,0.2,0.4,0.4V182.8z"/>
		<path class="st20" d="M643.3,182.8c0,0.2-0.2,0.4-0.4,0.4l0,0c-0.2,0-0.4-0.2-0.4-0.4v-2.3c0-0.2,0.2-0.4,0.4-0.4l0,0    c0.2,0,0.4,0.2,0.4,0.4V182.8z"/>
		<path class="st20" d="M645.9,182.8c0,0.2-0.2,0.4-0.4,0.4l0,0c-0.2,0-0.4-0.2-0.4-0.4v-2.3c0-0.2,0.2-0.4,0.4-0.4l0,0    c0.2,0,0.4,0.2,0.4,0.4V182.8z"/>
		<path class="st20" d="M648.5,182.8c0,0.2-0.2,0.4-0.4,0.4l0,0c-0.2,0-0.4-0.2-0.4-0.4v-2.3c0-0.2,0.2-0.4,0.4-0.4l0,0    c0.2,0,0.4,0.2,0.4,0.4V182.8z"/>
		<path class="st20" d="M651,182.8c0,0.2-0.2,0.4-0.4,0.4l0,0c-0.2,0-0.4-0.2-0.4-0.4v-2.3c0-0.2,0.2-0.4,0.4-0.4l0,0    c0.2,0,0.4,0.2,0.4,0.4V182.8z"/>
		<path class="st20" d="M653.6,182.8c0,0.2-0.2,0.4-0.4,0.4l0,0c-0.2,0-0.4-0.2-0.4-0.4v-2.3c0-0.2,0.2-0.4,0.4-0.4l0,0    c0.2,0,0.4,0.2,0.4,0.4V182.8z"/>
		<path class="st20" d="M656.2,182.8c0,0.2-0.2,0.4-0.4,0.4l0,0c-0.2,0-0.4-0.2-0.4-0.4v-2.3c0-0.2,0.2-0.4,0.4-0.4l0,0    c0.2,0,0.4,0.2,0.4,0.4V182.8z"/>
		<path class="st20" d="M658.7,182.8c0,0.2-0.2,0.4-0.4,0.4l0,0c-0.2,0-0.4-0.2-0.4-0.4v-2.3c0-0.2,0.2-0.4,0.4-0.4l0,0    c0.2,0,0.4,0.2,0.4,0.4V182.8z"/>
		<path class="st20" d="M661.3,182.8c0,0.2-0.2,0.4-0.4,0.4l0,0c-0.2,0-0.4-0.2-0.4-0.4v-2.3c0-0.2,0.2-0.4,0.4-0.4l0,0    c0.2,0,0.4,0.2,0.4,0.4V182.8z"/>
		<path class="st20" d="M663.9,182.8c0,0.2-0.2,0.4-0.4,0.4l0,0c-0.2,0-0.4-0.2-0.4-0.4v-2.3c0-0.2,0.2-0.4,0.4-0.4l0,0    c0.2,0,0.4,0.2,0.4,0.4V182.8z"/>
		<path class="st20" d="M666.5,182.8c0,0.2-0.2,0.4-0.4,0.4l0,0c-0.2,0-0.4-0.2-0.4-0.4v-2.3c0-0.2,0.2-0.4,0.4-0.4l0,0    c0.2,0,0.4,0.2,0.4,0.4V182.8z"/>
		<path class="st20" d="M669,182.8c0,0.2-0.2,0.4-0.4,0.4l0,0c-0.2,0-0.4-0.2-0.4-0.4v-2.3c0-0.2,0.2-0.4,0.4-0.4l0,0    c0.2,0,0.4,0.2,0.4,0.4V182.8z"/>
		<path class="st20" d="M671.6,182.8c0,0.2-0.2,0.4-0.4,0.4l0,0c-0.2,0-0.4-0.2-0.4-0.4v-2.3c0-0.2,0.2-0.4,0.4-0.4l0,0    c0.2,0,0.4,0.2,0.4,0.4V182.8z"/>
		<path class="st20" d="M674.2,182.8c0,0.2-0.2,0.4-0.4,0.4l0,0c-0.2,0-0.4-0.2-0.4-0.4v-2.3c0-0.2,0.2-0.4,0.4-0.4l0,0    c0.2,0,0.4,0.2,0.4,0.4V182.8z"/>
	</g>
	<path class="st38" d="M541,181.6v9.9c0,0,2.7-1.4,4.5,1.6c1.7,3,3.8,0.7,4.8-0.8c1-1.6,3.7-1.9,5.1,0.9c1.4,2.8,2.4,2.6,4.2-0.1   c1.8-2.6,4.4-2.9,6.2,0c1.9,2.9,3.1,0.5,5-2.1c1.9-2.6,3.4-1.4,5.2,0.9c1.8,2.3,4.2,3.1,5.2,0.8c1-2.2,3-4,4.3-1   c1.3,3.1,2.4,0.2,2.4,0.2v-10.4H541z"/>
	<path class="st38" d="M627.6,181.6v9.9c0,0,2.7-1.4,4.5,1.6c1.7,3,3.8,0.7,4.8-0.8c1-1.6,3.7-1.9,5.1,0.9c1.4,2.8,2.4,2.6,4.2-0.1   c1.8-2.6,4.4-2.9,6.2,0c1.9,2.9,3.1,0.5,5-2.1c1.9-2.6,3.4-1.4,5.2,0.9c1.8,2.3,4.2,3.1,5.2,0.8c1-2.2,3-4,4.3-1   c1.3,3.1,2.4,0.2,2.4,0.2v-10.4H627.6z"/>
	<rect x="704.9" y="129.9" class="st39" width="34.5" height="116.8"/>
	<rect x="704.9" y="160" class="st20" width="34.5" height="51.9"/>
	<rect x="704.9" y="126.7" class="st39" width="186" height="33.4"/>
	<rect x="742.4" y="126.9" class="st40" width="1.5" height="32.9"/>
	<rect x="848.4" y="126.9" class="st40" width="1.5" height="32.9"/>
	<rect x="704.9" y="160" class="st41" width="27.3" height="51.9"/>
	<path class="st41" d="M718.6,163H705c0,0,0,0,0,0v45.7c0,0,0,0,0,0h13.7c4.4,0,8-3.6,8-8V171C726.6,166.6,723.1,163,718.6,163z"/>
	<rect x="704.9" y="183.9" class="st41" width="7.8" height="2.4"/>
	<circle class="st41" cx="716.8" cy="185.2" r="2.1"/>
	<g>
		<g>
			<rect x="763.7" y="142.5" class="st20" width="60.7" height="0.7"/>
			<rect x="763.7" y="139.7" class="st20" width="60.7" height="0.7"/>
			<rect x="763.7" y="136.8" class="st20" width="60.7" height="0.7"/>
			<rect x="763.7" y="134" class="st20" width="60.7" height="0.7"/>
			<rect x="763.7" y="131.1" class="st20" width="60.7" height="0.7"/>
			<rect x="763.7" y="128.3" class="st20" width="60.7" height="0.7"/>
			<rect x="763.5" y="128.2" class="st20" width="0.8" height="17.1"/>
			<rect x="768.6" y="128.2" class="st20" width="0.8" height="17.1"/>
			<rect x="773.7" y="128.2" class="st20" width="0.8" height="17.1"/>
			<rect x="778.8" y="128.2" class="st20" width="0.8" height="17.1"/>
			<rect x="783.8" y="128.2" class="st20" width="0.8" height="17.1"/>
			<rect x="788.9" y="128.2" class="st20" width="0.8" height="17.1"/>
			<rect x="794" y="128.2" class="st20" width="0.8" height="17.1"/>
			<rect x="799" y="128.2" class="st20" width="0.8" height="17.1"/>
			<rect x="804.1" y="128.2" class="st20" width="0.8" height="17.1"/>
			<rect x="809.2" y="128.2" class="st20" width="0.8" height="17.1"/>
			<rect x="814.2" y="128.2" class="st20" width="0.8" height="17.1"/>
			<rect x="819.3" y="128.2" class="st20" width="0.8" height="17.1"/>
			<rect x="824.4" y="128.2" class="st20" width="0.8" height="17.1"/>
		</g>
		<g>
			<rect x="763.7" y="119.8" class="st20" width="60.7" height="0.4"/>
			<rect x="763.7" y="121.4" class="st20" width="60.7" height="0.4"/>
			<rect x="763.7" y="123" class="st20" width="60.7" height="0.4"/>
			<rect x="763.7" y="124.6" class="st20" width="60.7" height="0.4"/>
			<rect x="763.7" y="126.2" class="st20" width="60.7" height="0.4"/>
			<rect x="763.7" y="127.8" class="st20" width="60.7" height="0.4"/>
			<rect x="763.5" y="118.6" class="st20" width="0.8" height="9.6"/>
			<rect x="768.6" y="118.6" class="st20" width="0.8" height="9.6"/>
			<rect x="773.7" y="118.6" class="st20" width="0.8" height="9.6"/>
			<rect x="778.8" y="118.6" class="st20" width="0.8" height="9.6"/>
			<rect x="783.8" y="118.6" class="st20" width="0.8" height="9.6"/>
			<rect x="788.9" y="118.6" class="st20" width="0.8" height="9.6"/>
			<rect x="794" y="118.6" class="st20" width="0.8" height="9.6"/>
			<rect x="799" y="118.6" class="st20" width="0.8" height="9.6"/>
			<rect x="804.1" y="118.6" class="st20" width="0.8" height="9.6"/>
			<rect x="809.2" y="118.6" class="st20" width="0.8" height="9.6"/>
			<rect x="814.2" y="118.6" class="st20" width="0.8" height="9.6"/>
			<rect x="819.3" y="118.6" class="st20" width="0.8" height="9.6"/>
			<rect x="824.4" y="118.6" class="st20" width="0.8" height="9.6"/>
		</g>
		<rect x="763.5" y="118.6" class="st20" width="60.8" height="6.3"/>
		<rect x="763.5" y="143.2" class="st20" width="60.8" height="2.1"/>
	</g>
	<rect x="891.7" y="476.9" class="st42" width="116.8" height="46"/>
	<path class="st31" d="M1107,531.8c0,4.4-3.6,8-8,8h-40.7c-4.4,0-8-3.6-8-8v-57.3c0-4.4,3.6-8,8-8h40.7c4.4,0,8,3.6,8,8V531.8z"/>
	<g>
		<rect x="1026.5" y="157.8" class="st43" width="81.6" height="172.2"/>
		<path class="st43" d="M1089.9,144.9c0,4-3.3,7.3-7.3,7.3H1052c-4,0-7.3-3.3-7.3-7.3l0,0c0-4,3.3-7.3,7.3-7.3h30.5    C1086.6,137.6,1089.9,140.8,1089.9,144.9L1089.9,144.9z"/>
		<path class="st43" d="M1089.9,344.5c0,4-3.3,7.3-7.3,7.3H1052c-4,0-7.3-3.3-7.3-7.3l0,0c0-4,3.3-7.3,7.3-7.3h30.5    C1086.6,337.2,1089.9,340.4,1089.9,344.5L1089.9,344.5z"/>
		<g>
			<path class="st43" d="M1117.6,220.4c-4,0-7.3-3.3-7.3-7.3v-30.5c0-4,3.3-7.3,7.3-7.3l0,0c4,0,7.3,3.3,7.3,7.3v30.5     C1124.9,217.2,1121.6,220.4,1117.6,220.4L1117.6,220.4z"/>
			<path class="st43" d="M1117.6,312.5c-4,0-7.3-3.3-7.3-7.3v-30.5c0-4,3.3-7.3,7.3-7.3l0,0c4,0,7.3,3.3,7.3,7.3v30.5     C1124.9,309.3,1121.6,312.5,1117.6,312.5L1117.6,312.5z"/>
			<g>
				<path class="st43" d="M1016.8,220.4c-4,0-7.3-3.3-7.3-7.3v-30.5c0-4,3.3-7.3,7.3-7.3l0,0c4,0,7.3,3.3,7.3,7.3v30.5      C1024.2,217.2,1020.9,220.4,1016.8,220.4L1016.8,220.4z"/>
				<path class="st43" d="M1016.8,312.5c-4,0-7.3-3.3-7.3-7.3v-30.5c0-4,3.3-7.3,7.3-7.3l0,0c4,0,7.3,3.3,7.3,7.3v30.5      C1024.2,309.3,1020.9,312.5,1016.8,312.5L1016.8,312.5z"/>
			</g>
		</g>
	</g>
</g>
<rect x="715.3" y="674.9" class="st1" width="68.9" height="12"/>
<rect x="715.3" y="696.1" class="st1" width="68.9" height="12"/>
<rect x="715.3" y="717.2" class="st1" width="68.9" height="12"/>
<rect x="715.3" y="738.4" class="st1" width="68.9" height="12"/>
<rect x="715.3" y="759.6" class="st1" width="68.9" height="12"/>
<rect x="715.3" y="780.7" class="st1" width="68.9" height="12"/>
<rect x="715.3" y="801.9" class="st1" width="68.9" height="12"/>
<rect x="715.3" y="823" class="st1" width="68.9" height="12"/>
<rect x="715.3" y="844.2" class="st1" width="68.9" height="12"/>
</svg>
